<svg width="36" height="36" viewBox="0 0 36 36" fill="none" xmlns="http://www.w3.org/2000/svg">
<ellipse cx="18" cy="18.5" rx="15" ry="14.5" fill="white"/>
<path fill-rule="evenodd" clip-rule="evenodd" d="M18.1353 0.772522C27.794 0.772522 35.6353 8.61377 35.6353 18.2725C35.6353 27.9313 27.794 35.7725 18.1353 35.7725C8.4765 35.7725 0.635254 27.9313 0.635254 18.2725C0.635254 8.61377 8.4765 0.772522 18.1353 0.772522ZM14.874 18.3925L10.579 22.6875C9.60901 23.6588 9.60901 25.235 10.579 26.2063C11.5503 27.1763 13.1265 27.1763 14.0978 26.2063L18.3927 21.9113L22.6878 26.2063C23.6578 27.1763 25.234 27.1763 26.2052 26.2063C27.1765 25.235 27.1765 23.6588 26.2052 22.6875L21.9103 18.3925L26.2052 14.0975C27.1765 13.1275 27.1765 11.5513 26.2052 10.58C25.234 9.60876 23.6578 9.60876 22.6878 10.58L18.3927 14.875L14.0978 10.58C13.1265 9.60876 11.5503 9.60876 10.579 10.58C9.60901 11.5513 9.60901 13.1275 10.579 14.0975L14.874 18.3925Z" fill="#362B25"/>
<path fill-rule="evenodd" clip-rule="evenodd" d="M18.1353 0.772522C27.794 0.772522 35.6353 8.61377 35.6353 18.2725C35.6353 27.9313 27.794 35.7725 18.1353 35.7725C8.4765 35.7725 0.635254 27.9313 0.635254 18.2725C0.635254 8.61377 8.4765 0.772522 18.1353 0.772522ZM18.1353 1.95878C9.1315 1.95878 1.82151 9.26877 1.82151 18.2725C1.82151 27.2763 9.1315 34.5863 18.1353 34.5863C27.139 34.5863 34.449 27.2763 34.449 18.2725C34.449 9.26877 27.139 1.95878 18.1353 1.95878ZM13.1978 18.3925L9.74151 14.9363C8.30776 13.5025 8.30776 11.175 9.74151 9.74128C11.174 8.30753 13.5027 8.30753 14.9365 9.74128L18.3927 13.1975L21.849 9.74128C23.2827 8.30753 25.6103 8.30753 27.044 9.74128C28.4778 11.175 28.4778 13.5025 27.044 14.9363L23.5878 18.3925L27.044 21.8488C28.4778 23.2825 28.4778 25.6113 27.044 27.0438C25.6103 28.4775 23.2827 28.4775 21.849 27.0438L18.3927 23.5875L14.9365 27.0438C13.5027 28.4775 11.174 28.4775 9.74151 27.0438C8.30776 25.6113 8.30776 23.2825 9.74151 21.8488L13.1978 18.3925ZM14.874 18.3925L10.579 22.6875C9.60901 23.6588 9.60901 25.235 10.579 26.2063C11.5503 27.1763 13.1265 27.1763 14.0978 26.2063L18.3927 21.9113L22.6878 26.2063C23.6578 27.1763 25.234 27.1763 26.2052 26.2063C27.1765 25.235 27.1765 23.6588 26.2052 22.6875L21.9103 18.3925L26.2052 14.0975C27.1765 13.1275 27.1765 11.5513 26.2052 10.58C25.234 9.60876 23.6578 9.60876 22.6878 10.58L18.3927 14.875L14.0978 10.58C13.1265 9.60876 11.5503 9.60876 10.579 10.58C9.60901 11.5513 9.60901 13.1275 10.579 14.0975L14.874 18.3925Z" fill="#2B201A"/>
</svg>
