<svg width="36" height="36" viewBox="0 0 36 36" fill="none" xmlns="http://www.w3.org/2000/svg">
<ellipse cx="18" cy="18.5" rx="15" ry="14.5" fill="white"/>
<path fill-rule="evenodd" clip-rule="evenodd" d="M17.998 0.772522C27.6568 0.772522 35.498 8.61377 35.498 18.2725C35.498 27.9313 27.6568 35.7725 17.998 35.7725C8.3393 35.7725 0.498047 27.9313 0.498047 18.2725C0.498047 8.61377 8.3393 0.772522 17.998 0.772522ZM18.2905 13.16L17.2943 12.1163C15.2068 9.92627 11.8168 9.92627 9.72929 12.1163C7.64179 14.305 7.64179 17.8613 9.72929 20.05C9.72929 20.05 13.7068 24.1675 16.2393 26.7875C16.7768 27.3438 17.5168 27.6575 18.2905 27.6575C19.063 27.6575 19.803 27.3438 20.3405 26.7875C22.873 24.1675 26.8518 20.05 26.8518 20.05C28.9393 17.8613 28.9393 14.305 26.8518 12.1163C24.763 9.92627 21.373 9.92627 19.2855 12.1163L18.2905 13.16Z" fill="#DC2D2D"/>
<path fill-rule="evenodd" clip-rule="evenodd" d="M17.998 0.772522C27.6568 0.772522 35.498 8.61377 35.498 18.2725C35.498 27.9313 27.6568 35.7725 17.998 35.7725C8.3393 35.7725 0.498047 27.9313 0.498047 18.2725C0.498047 8.61377 8.3393 0.772522 17.998 0.772522ZM17.998 1.95878C8.9943 1.95878 1.6843 9.26877 1.6843 18.2725C1.6843 27.2763 8.9943 34.5863 17.998 34.5863C27.0018 34.5863 34.3118 27.2763 34.3118 18.2725C34.3118 9.26877 27.0018 1.95878 17.998 1.95878ZM18.2905 11.4425L18.428 11.2975C20.9893 8.61127 25.148 8.61127 27.7093 11.2975C30.228 13.9388 30.228 18.2275 27.7093 20.8688C27.708 20.8713 27.7055 20.8725 27.7043 20.875L21.193 27.6125C20.433 28.3988 19.3843 28.8438 18.2905 28.8438C17.1955 28.8438 16.148 28.3988 15.3868 27.6125L8.87554 20.875C8.87429 20.8725 8.87179 20.8713 8.87054 20.8688C6.35179 18.2275 6.35179 13.9388 8.87054 11.2975C11.4318 8.61127 15.5905 8.61127 18.1518 11.2975L18.2905 11.4425ZM18.2905 13.16L17.2943 12.1163C15.2068 9.92627 11.8168 9.92627 9.72929 12.1163C7.64179 14.305 7.64179 17.8613 9.72929 20.05L16.2393 26.7875C16.7768 27.3438 17.5168 27.6575 18.2905 27.6575C19.063 27.6575 19.803 27.3438 20.3405 26.7875L26.8518 20.05C28.9393 17.8613 28.9393 14.305 26.8518 12.1163C24.763 9.92627 21.373 9.92627 19.2855 12.1163L18.2905 13.16Z" fill="#2B201A"/>
</svg>
