<svg width="151" height="36" viewBox="0 0 151 36" fill="none" xmlns="http://www.w3.org/2000/svg">
<rect x="1.42246" y="1.42252" width="148.7" height="33.7" rx="16.85" fill="white"/>
<rect x="1.42246" y="1.42252" width="148.7" height="33.7" rx="16.85" stroke="#2B201A" stroke-width="1.3"/>
<path d="M22.3125 24.4613C22.1958 24.4613 22.0908 24.4205 21.9975 24.3388C21.9041 24.2571 21.8575 24.1463 21.8575 24.0063V12.6663C21.8575 12.538 21.9041 12.433 21.9975 12.3513C22.0908 12.258 22.1958 12.2113 22.3125 12.2113H25.165C25.2933 12.2113 25.3983 12.258 25.48 12.3513C25.5733 12.433 25.62 12.538 25.62 12.6663V16.6213H29.19V12.6663C29.19 12.538 29.2366 12.433 29.33 12.3513C29.4233 12.258 29.5283 12.2113 29.645 12.2113H32.4975C32.6258 12.2113 32.7308 12.258 32.8125 12.3513C32.9058 12.433 32.9525 12.538 32.9525 12.6663V24.0063C32.9525 24.1346 32.9058 24.2455 32.8125 24.3388C32.7308 24.4205 32.6258 24.4613 32.4975 24.4613H29.645C29.5283 24.4613 29.4233 24.4205 29.33 24.3388C29.2366 24.2455 29.19 24.1346 29.19 24.0063V19.9463H25.62V24.0063C25.62 24.1346 25.5733 24.2455 25.48 24.3388C25.3983 24.4205 25.2933 24.4613 25.165 24.4613H22.3125ZM34.5063 24.4613C34.4013 24.4613 34.3138 24.4263 34.2438 24.3563C34.1738 24.2746 34.1388 24.1813 34.1388 24.0763C34.1388 24.0296 34.1446 23.9888 34.1563 23.9538L38.1463 12.7538C38.1929 12.6255 38.2746 12.503 38.3913 12.3863C38.5079 12.2696 38.6713 12.2113 38.8813 12.2113H42.0838C42.3054 12.2113 42.4746 12.2696 42.5913 12.3863C42.7079 12.503 42.7838 12.6255 42.8188 12.7538L46.8263 23.9538C46.8379 23.9888 46.8438 24.0296 46.8438 24.0763C46.8438 24.1813 46.8029 24.2746 46.7213 24.3563C46.6513 24.4263 46.5638 24.4613 46.4588 24.4613H43.7638C43.5654 24.4613 43.4196 24.4146 43.3263 24.3213C43.2329 24.228 43.1688 24.1405 43.1338 24.0588L42.5913 22.5888H38.3738L37.8313 24.0588C37.7963 24.1405 37.7321 24.228 37.6388 24.3213C37.5571 24.4146 37.4113 24.4613 37.2013 24.4613H34.5063ZM39.1788 19.6313H41.7863L40.4738 15.6938L39.1788 19.6313ZM49.942 24.4613C49.8136 24.4613 49.7028 24.4205 49.6095 24.3388C49.5278 24.2455 49.487 24.1346 49.487 24.0063V15.4663H46.477C46.3486 15.4663 46.2378 15.4255 46.1445 15.3438C46.0628 15.2505 46.022 15.1396 46.022 15.0113V12.6663C46.022 12.538 46.0628 12.433 46.1445 12.3513C46.2378 12.258 46.3486 12.2113 46.477 12.2113H56.312C56.4403 12.2113 56.5453 12.258 56.627 12.3513C56.7203 12.433 56.767 12.538 56.767 12.6663V15.0113C56.767 15.1396 56.7203 15.2505 56.627 15.3438C56.5453 15.4255 56.4403 15.4663 56.312 15.4663H53.302V24.0063C53.302 24.1346 53.2553 24.2455 53.162 24.3388C53.0803 24.4205 52.9753 24.4613 52.847 24.4613H49.942ZM58.6455 24.4613C58.5288 24.4613 58.4238 24.4205 58.3305 24.3388C58.2371 24.2455 58.1905 24.1346 58.1905 24.0063V12.6663C58.1905 12.538 58.2371 12.433 58.3305 12.3513C58.4238 12.258 58.5288 12.2113 58.6455 12.2113H67.2205C67.3488 12.2113 67.4596 12.258 67.553 12.3513C67.6463 12.433 67.693 12.538 67.693 12.6663V14.7313C67.693 14.848 67.6463 14.953 67.553 15.0463C67.4596 15.1396 67.3488 15.1863 67.2205 15.1863H61.813V16.9188H66.8355C66.9638 16.9188 67.0746 16.9655 67.168 17.0588C67.2613 17.1405 67.308 17.2455 67.308 17.3738V19.2638C67.308 19.3921 67.2613 19.503 67.168 19.5963C67.0746 19.678 66.9638 19.7188 66.8355 19.7188H61.813V21.4863H67.3605C67.4888 21.4863 67.5996 21.533 67.693 21.6263C67.7863 21.7196 67.833 21.8305 67.833 21.9588V24.0063C67.833 24.1346 67.7863 24.2455 67.693 24.3388C67.5996 24.4205 67.4888 24.4613 67.3605 24.4613H58.6455Z" fill="#2B201A"/>
<path d="M71.575 24.4613C71.4466 24.4613 71.3416 24.4205 71.26 24.3388C71.1783 24.2571 71.1375 24.158 71.1375 24.0413V12.6488C71.1375 12.5205 71.1783 12.4155 71.26 12.3338C71.3416 12.2521 71.4466 12.2113 71.575 12.2113H72.9575C73.1208 12.2113 73.2433 12.258 73.325 12.3513C73.4066 12.433 73.4591 12.4971 73.4825 12.5438L76.86 18.8438L80.2725 12.5438C80.2958 12.4971 80.3483 12.433 80.43 12.3513C80.5116 12.258 80.6341 12.2113 80.7975 12.2113H82.1625C82.2908 12.2113 82.3958 12.2521 82.4775 12.3338C82.5591 12.4155 82.6 12.5205 82.6 12.6488V24.0413C82.6 24.158 82.5591 24.2571 82.4775 24.3388C82.3958 24.4205 82.2908 24.4613 82.1625 24.4613H80.6925C80.5641 24.4613 80.4591 24.4205 80.3775 24.3388C80.3075 24.2571 80.2725 24.158 80.2725 24.0413V16.4638L77.8225 21.1363C77.7641 21.2413 77.6883 21.3346 77.595 21.4163C77.5016 21.4863 77.3791 21.5213 77.2275 21.5213H76.51C76.3466 21.5213 76.2183 21.4863 76.125 21.4163C76.0433 21.3346 75.9733 21.2413 75.915 21.1363L73.465 16.4638V24.0413C73.465 24.158 73.4241 24.2571 73.3425 24.3388C73.2608 24.4205 73.1616 24.4613 73.045 24.4613H71.575ZM84.5695 24.4613C84.4762 24.4613 84.3887 24.4263 84.307 24.3563C84.237 24.2863 84.202 24.1988 84.202 24.0938C84.202 24.0471 84.2137 23.9946 84.237 23.9363L88.4545 12.6488C88.4895 12.5321 88.5537 12.433 88.647 12.3513C88.752 12.258 88.892 12.2113 89.067 12.2113H90.9745C91.1495 12.2113 91.2837 12.258 91.377 12.3513C91.4704 12.433 91.5404 12.5321 91.587 12.6488L95.8045 23.9363C95.8162 23.9946 95.822 24.0471 95.822 24.0938C95.822 24.1988 95.787 24.2863 95.717 24.3563C95.647 24.4263 95.5654 24.4613 95.472 24.4613H93.9495C93.7862 24.4613 93.6637 24.4263 93.582 24.3563C93.512 24.2746 93.4654 24.1988 93.442 24.1288L92.6195 21.9938H87.422L86.5995 24.1288C86.5762 24.1988 86.5237 24.2746 86.442 24.3563C86.372 24.4263 86.2554 24.4613 86.092 24.4613H84.5695ZM88.0345 19.9813H92.007L90.012 14.5738L88.0345 19.9813ZM99.2891 24.4613C99.1724 24.4613 99.0732 24.4205 98.9916 24.3388C98.9099 24.2571 98.8691 24.158 98.8691 24.0413V14.3638H95.6316C95.5149 14.3638 95.4157 14.323 95.3341 14.2413C95.2524 14.1596 95.2116 14.0605 95.2116 13.9438V12.6488C95.2116 12.5205 95.2524 12.4155 95.3341 12.3338C95.4157 12.2521 95.5149 12.2113 95.6316 12.2113H104.557C104.685 12.2113 104.79 12.2521 104.872 12.3338C104.953 12.4155 104.994 12.5205 104.994 12.6488V13.9438C104.994 14.0605 104.953 14.1596 104.872 14.2413C104.79 14.323 104.685 14.3638 104.557 14.3638H101.337V24.0413C101.337 24.158 101.296 24.2571 101.214 24.3388C101.132 24.4205 101.027 24.4613 100.899 24.4613H99.2891ZM111.273 24.6363C110.188 24.6363 109.266 24.4496 108.508 24.0763C107.761 23.6913 107.189 23.1488 106.793 22.4488C106.396 21.7371 106.174 20.8855 106.128 19.8938C106.116 19.4155 106.11 18.9021 106.11 18.3538C106.11 17.8055 106.116 17.2805 106.128 16.7788C106.174 15.7988 106.396 14.953 106.793 14.2413C107.201 13.5296 107.778 12.9871 108.525 12.6138C109.283 12.2288 110.199 12.0363 111.273 12.0363C112.066 12.0363 112.778 12.1413 113.408 12.3513C114.038 12.5613 114.574 12.853 115.018 13.2263C115.461 13.588 115.805 14.0138 116.05 14.5038C116.295 14.9938 116.423 15.5246 116.435 16.0963C116.447 16.2013 116.412 16.2888 116.33 16.3588C116.26 16.4288 116.173 16.4638 116.068 16.4638H114.405C114.277 16.4638 114.172 16.4346 114.09 16.3763C114.008 16.3063 113.95 16.1955 113.915 16.0438C113.728 15.2738 113.408 14.7488 112.953 14.4688C112.498 14.1888 111.932 14.0488 111.255 14.0488C110.473 14.0488 109.849 14.2705 109.383 14.7138C108.916 15.1455 108.665 15.863 108.63 16.8663C108.595 17.823 108.595 18.803 108.63 19.8063C108.665 20.8096 108.916 21.533 109.383 21.9763C109.849 22.408 110.473 22.6238 111.255 22.6238C111.932 22.6238 112.498 22.4838 112.953 22.2038C113.419 21.9121 113.74 21.3871 113.915 20.6288C113.95 20.4655 114.008 20.3546 114.09 20.2963C114.172 20.238 114.277 20.2088 114.405 20.2088H116.068C116.173 20.2088 116.26 20.2438 116.33 20.3138C116.412 20.3838 116.447 20.4713 116.435 20.5763C116.423 21.148 116.295 21.6788 116.05 22.1688C115.805 22.6588 115.461 23.0905 115.018 23.4638C114.574 23.8255 114.038 24.1113 113.408 24.3213C112.778 24.5313 112.066 24.6363 111.273 24.6363ZM118.931 24.4613C118.814 24.4613 118.715 24.4263 118.633 24.3563C118.551 24.2746 118.511 24.1696 118.511 24.0413V12.6488C118.511 12.5205 118.551 12.4155 118.633 12.3338C118.715 12.2521 118.814 12.2113 118.931 12.2113H120.523C120.651 12.2113 120.751 12.2521 120.821 12.3338C120.902 12.4155 120.943 12.5205 120.943 12.6488V17.1638H126.106V12.6488C126.106 12.5205 126.146 12.4155 126.228 12.3338C126.31 12.2521 126.409 12.2113 126.526 12.2113H128.101C128.229 12.2113 128.334 12.2521 128.416 12.3338C128.497 12.4155 128.538 12.5205 128.538 12.6488V24.0413C128.538 24.158 128.497 24.2571 128.416 24.3388C128.334 24.4205 128.229 24.4613 128.101 24.4613H126.526C126.409 24.4613 126.31 24.4205 126.228 24.3388C126.146 24.2571 126.106 24.158 126.106 24.0413V19.3513H120.943V24.0413C120.943 24.158 120.902 24.2571 120.821 24.3388C120.751 24.4205 120.651 24.4613 120.523 24.4613H118.931Z" fill="#2B201A"/>
</svg>
